<?xml version="1.0" encoding="UTF-8"?> <svg xmlns="http://www.w3.org/2000/svg" id="Layer_1" viewBox="0 0 1200 630"><defs><linearGradient id="linear-gradient" x1="2882.22" y1="688.56" x2="2939.72" y2="688.56" gradientTransform="matrix(-1 0 0 1 3814.41 -167.27)" gradientUnits="userSpaceOnUse"><stop offset="0" stop-color="#b45ef9"></stop><stop offset=".5" stop-color="#1ab8e8"></stop><stop offset="1" stop-color="#21e6ad"></stop></linearGradient><linearGradient id="linear-gradient-2" x1="2697.51" y1="647.87" x2="2833.82" y2="647.87" gradientTransform="matrix(-1 0 0 1 3814.41 -167.27)" gradientUnits="userSpaceOnUse"><stop offset="0" stop-color="#b45ef9"></stop><stop offset=".5" stop-color="#1ab8e8"></stop><stop offset="1" stop-color="#21e6ad"></stop></linearGradient><linearGradient id="linear-gradient-3" x1="363.75" y1="1701.36" x2="363.75" y2="1979.1" gradientTransform="matrix(1 0 0 -1 0 2268.9)" gradientUnits="userSpaceOnUse"><stop offset="0" stop-color="#21e6ad"></stop><stop offset=".37" stop-color="#1ab8e8"></stop><stop offset=".86" stop-color="#b45ef9"></stop></linearGradient><clipPath id="clippath"><path d="M1170.89 342.4c-21.6 103.2-158.7 186.3-337.7 204.4-72.1 7.2-135.5 11.3-188.3 13.6-184.7 8.1-280.1-8.9-409-26.6-135.4-18.1-224.7-92-206.6-170.5.3-1.4.7-2.9 1-4.3 26.8-102.7 155.2-160.1 183.4-172.1 224.5-119 356.1-129.7 436.5-113.4 88.9 18.1 105.3 70.5 226.3 102.6 36.5 9.6 73.6 16.3 111.2 20.1 117.8 12.3 198.1 75.2 183.9 143.2l-.7 3z" style="fill:none"></path></clipPath><style>.cls-3{fill:none}.cls-8,.cls-9{fill:#02024e}.cls-11{fill:#b45ef9}.cls-13,.cls-14{fill:#1ab8e8}.cls-3{stroke:#02024e;stroke-linecap:round;stroke-linejoin:round}.cls-14,.cls-9{fill-rule:evenodd}.cls-3{stroke-width:3px}</style></defs><path d="M1170.79 342.4c-21.6 103.2-158.7 186.2-337.7 204.4-72.1 7.2-135.5 11.3-188.4 13.6-184.7 8.1-280.1-8.9-409-26.6-134.6-18.5-224.7-91.9-206.6-170.5.3-1.4.7-2.9 1.1-4.3 26.8-102.8 155.2-160.2 183.4-172.3 224.5-118.8 356.1-129.5 436.5-113.2 89 18.1 105.3 70.5 226.3 102.6 36.5 9.6 73.6 16.3 111.2 20.1 117.8 12.3 198.1 75.2 183.9 143.2l-.7 3z" style="fill:#fff"></path><g style="clip-path:url(#clippath)"><path class="cls-8" d="M998.99 216.3c-20 11.4-35.5 41.8-24.1 61.8s45.5 22.1 65.5 10.7 27-36.9 15.6-57-36.9-26.9-57-15.5z"></path><path class="cls-11" d="M1106.99 516.7c11.2 18.6 15.3 36-.8 53h-293.8c-8-28.2 10-36.9 2-44.4-3.4-3-5.8-7-6.7-11.4-3.5-19.1 27.3-33.8 28.8-34.5l.4-.2c-3.1-8.5-6.1-18.3-8.8-27.5-7.2-24.6 6.5-51.1 31.3-58l1.9-.5c16.1-3.9 30.9.1 40.7 4.1h48.2c9.9-4 39.8-8 55.8-4.1 21.1 5.1 35.5 21.4 58.3 62 12.6 22.5 31.3 42.6 42.7 61.5z"></path><path class="cls-3" d="m980.49 421.1 36.7 57.5c10.7 16.8 11.4 38.1 1.8 55.6-4.2 7.6-4.8 16.7-1.7 24.9l4.1 10.6"></path><path class="cls-11" d="M847.19 365.2c-6.8 6.7-9.6 16.4-7.4 25.7l19 6c4.6 1.5 7.4 6 6.6 10.8l-3.3 20.6-18.6 7.5 31.4 60 .2.3c-4.5 4.6-9.9 8.3-15.9 10.7-7 2.7-14.6 3.6-22 2.6-3.3-12.4-17.3-66.1-22.4-85.7-1.2-4.7-1-9.7.6-14.2l15.6-45.3c1.9-5.6 6.5-9.9 12.2-11.4l17.5-4.7c2-.6 4.1.6 4.7 2.6v.1c.4 1.8-.6 3.7-2.3 4.3-6 2.2-11.4 5.6-15.9 10.1z"></path><path d="M932.19 569.7c-6.3-27.2-26.8-56.1-26.8-56.1 2.9-6.4 6.5-17.9 1.5-27.3-5.3-9.9-18.3-13.8-32.2-13.4 0 0 34.8 9.7 15.4 39.5s4.2 57.3 4.2 57.3h37.9z" style="fill:url(#linear-gradient);opacity:.5;isolation:isolate"></path><path class="cls-3" d="M932.19 569.7c-6.3-27.2-26.8-56.1-26.8-56.1 2.9-6.4 6.5-17.9 1.5-27.3-5.3-9.9-18.3-13.8-32.2-13.4"></path><path d="m839.69 390.8 19 6c4.6 1.5 7.4 6 6.6 10.8l-3.3 20.6-18.6 7.5 31.4 60 .2.3c-4.5 4.6-9.9 8.3-15.9 10.7-7 2.7-14.6 3.6-22 2.6l-4.5-17" style="stroke-width:3px;stroke:#02024e;stroke-linecap:round;stroke-linejoin:round;fill:#b45ef9"></path><path class="cls-3" d="M880.29 489.9c-5.3 7.5-12.6 13.4-21.1 16.9-11.2 4.6-23.3 2.8-29.4 1.2"></path><path class="cls-11" d="M946.09 376.9c-1.7-12.3-.5-24.7 3.5-36.4v-.2c4 .5 8.1.1 11.9-1.2 6.4-2.2 16.8-8.7 16.4-18-.2-4.5-2.9-10.6-8.8-12.6-5.7-1.7-11.9.5-15.3 5.3 0 0-10 23.5-21.8 13.8-9.6-7.9 6.9-38.4 14.3-50.2-10.1 2.7-33.7 6.9-52.1-4.7-1.8-1.1-3.5-2.4-5.1-3.7-15.4 27.8-21.6 60.3-19.5 71.7.7 4.8 2.3 9.5 4.6 13.8 7.6 12.6 19 16.2 29.8 16.1l-9.8 38.6 50.5 25.7 16.9-27.5c-8.4-8.2-13.9-18.9-15.5-30.5z"></path><path class="cls-3" d="M934.19 362.4c-8.1 4.2-17 6.9-26.1 7.9m-13.7 38.8 50.5 25.7 16.9-27.5c-3.4-3.2-6.3-6.9-8.7-10.9"></path><path class="cls-13" d="M879.69 237c1.7-4.4 4.4-8.3 7.9-11.4 8.7-7.8 22.5-5.3 30.5.2 3.9 2.8 8.9 3.6 13.6 2.2 9.2-2.9 25.8-4.7 46.5 7.5 32.5 19.1 35 65 4.1 97.8-9.3 9.9-22.4 17.6-36.2 23.5.6-5.6 1.9-11 3.7-16.3v-.2c4 .5 8.1.1 11.9-1.2 6.4-2.2 16.8-8.7 16.4-18-.2-4.5-2.9-10.6-8.8-12.6-5.7-1.7-11.9.5-15.3 5.3 0 0-10 23.5-21.8 13.8-9.6-7.9 6.9-38.4 14.3-50.2-10.1 2.7-33.7 6.9-52.1-4.7-16.8-10.7-19-24.7-14.7-35.7z"></path><path class="cls-8" d="M879.69 237c1.7-4.4 4.4-8.3 7.9-11.4 8.7-7.8 22.5-5.3 30.5.2 3.9 2.8 8.9 3.6 13.6 2.2 9.2-2.9 25.8-4.7 46.5 7.5 32.5 19.1 35 65 4.1 97.8-9.3 9.9-22.4 17.6-36.2 23.5.6-5.6 1.9-11 3.7-16.3v-.2c4 .5 8.1.1 11.9-1.2 6.4-2.2 16.8-8.7 16.4-18-.2-4.5-2.9-10.6-8.8-12.6-5.7-1.7-11.9.5-15.3 5.3 0 0-10 23.5-21.8 13.8-9.6-7.9 6.9-38.4 14.3-50.2-10.1 2.7-33.7 6.9-52.1-4.7-16.8-10.7-19-24.7-14.7-35.7z"></path><path d="M983.59 239.3c13.2 10.1 20.1 25.4 20.3 42" style="stroke:#02024e;stroke-linecap:round;stroke-linejoin:round;stroke-width:.98px;fill:none"></path><path class="cls-3" d="M889.99 301s-3.4 9.1-7.4 12.5-7.5 1.5-8.3 6.3 8.2 6.4 8.2 6.4"></path><path d="M1072.49 521.3c-17.6-25.6-38-44.4-46.7-84.2-8.7-39.7-45.2-45.2-45.2-45.2 9.3-.6 18.6-.4 25.5 1.3 21.1 5.1 35.5 21.4 58.3 62 12.6 22.4 31.3 42.6 42.6 61.4 11.3 18.9 15.3 36-.8 53h-41.7c7.3-8.4 21.4-28.8 8-48.3z" style="opacity:.5;isolation:isolate;fill:url(#linear-gradient-2)"></path><path class="cls-9" d="M311.09 267.7h83.8c65.2 4.8 110.3 13.6 135.4 26.4 30.1 17 61.2 42.6 56.6 196.8-5.6 75.9-62.5 72.2-104.6 30.2-25.7 29.4-14.1-10.1-28.7 38.2-11.5 17.9-28 77.3-89.4 77.3s-103.2-8.9-125.3-26.9V560c-50.6 15.4-80.2 6.6-88.9-26.6-13-49.7-21.2-199.6 31.1-232.4 11.4-14 54.7-25.1 130-33.3z"></path><path class="cls-13" d="M245.79 561.4c-.9 0-1.6-.8-1.6-1.6 0-.7.5-1.3 1.1-1.5l156.3-44.3c.4-.1.8-.1 1.2.1 26.6 14 49.6 19.6 68.4 16.7 2.9-1.9 26.4-18.3 10.5-53.5h-24.8c-.9 0-1.6-.7-1.6-1.6 0-.4.2-.8.5-1.1 16.8-17.7 15.5-22.1 14.8-23-.6-.7-4.4 2.1-7.2 4.1-8.6 6.1-23 16.4-45.3 16.4s-101 4.2-232.6 12.6c-.9.1-1.6-.6-1.7-1.4-.1-.9.6-1.6 1.4-1.7 131.7-8.4 210-12.6 232.8-12.6 21.3 0 35.2-9.9 43.4-15.8 5.3-3.8 9.1-6.5 11.6-3.5 3.3 4-.5 11.6-12.4 24.6h22.1c.6 0 1.2.4 1.4.9 9.8 20.8 6.2 35.6 1.4 44.4-3.1 5.8-7.5 10.7-12.9 14.3-.2.1-.4.2-.6.2-19.4 3.1-43-2.5-70.1-16.7l-155.6 44h-.5z"></path><path class="cls-13" d="M259.49 479.7c-.8 0-1.5-.6-1.6-1.4l-10.4-106.9c-.1-.9.5-1.7 1.4-1.7.9-.1 1.6.5 1.7 1.4v.1l10.4 106.9c.1.9-.5 1.7-1.4 1.7l-.1-.1z"></path><path class="cls-13" d="M171.19 424.9c-19.1 0-26.4 0-27.9-.1-.9 0-1.6-.7-1.6-1.6s.7-1.6 1.6-1.6h.2c3 .2 38.4.2 110.8 0 .9-.1 1.7.6 1.8 1.4s-.6 1.7-1.4 1.8h-.3c-36.7.1-64.3.1-83.2.1zm298.2-52.2c-.9 0-1.6-.7-1.6-1.6v-35.8c0-.9.7-1.6 1.6-1.6s1.6.7 1.6 1.6v35.8c0 .9-.7 1.6-1.6 1.6zM354.29 324c-17.8 0-36.5-10-55.7-29.8-.7-.6-.7-1.6-.1-2.3.6-.7 1.6-.7 2.3-.1l.2.2c19.3 19.9 37.9 29.6 55.3 28.8 16.1-.7 31.7-10.4 46.5-28.7.6-.7 1.6-.8 2.3-.2.7.6.8 1.6.2 2.2-15.4 19.1-31.9 29.1-48.9 29.9h-2.1z"></path><path class="cls-14" d="M402.19 515.4c22.3 11.7 41.9 17.6 58.9 17.7h1.7l-7.9 23.5c-3.3 9.6-12.3 16.1-22.4 16.1h-134.8c-12.1 0-22.2-9.1-23.5-21.1l128-36.2zm90.1-167.3c13.1 0 23.7 10.6 23.7 23.7 0 2.6-.4 5.1-1.2 7.6l-32.5 96.2h-25.2c12.7-13.4 17.7-21.8 14.8-25.1-.3-.4-.7-.6-1.2-.7h-.2c-5.7 0-21.2 20.5-52.4 20.5-16.4 0-56.4 1.7-120 5l-1.9.1 34.8-110.8c3.1-9.9 12.2-16.6 22.6-16.6l138.7.1z"></path><path class="cls-13" d="M550.29 497c-.4 0-.7-.1-1-.4l-51.9-49.4c-.5-.5-.5-1.2-.1-1.7l.1-.1c.5-.5 1.4-.5 1.9 0l51.9 49.5c.5.4.5 1.2.1 1.7l-.1.1c-.2.2-.5.3-.9.3zm-43.4-74.4c-.8 0-1.4-.7-1.4-1.4-.1-.8.5-1.6 1.3-1.7l77.1-5c.8 0 1.4.6 1.4 1.4.1.8-.5 1.6-1.3 1.7l-77.1 5z"></path><g style="opacity:.5"><path id="SVGID" d="m198.49 289.8-1.2 2.2c-33.4 61.9-34.3 212.7-23.3 234.6 7.4 14.6 84 10.2 229.9-13l-165.1 46.6c-50.6 15.4-80.2 6.6-88.9-26.6-13-49.7-21.2-199.6 31.1-232.4 3.2-3.9 8.9-7.7 17.1-11.1l.4-.3zM586.89 491c-5.6 75.8-62.5 72.2-104.6 30.2l5.9-13.7-.8-22c33.7 27.2 56.8 35.2 67 23.3 15.1-17.9 29.7-152-13.3-207.9 26.2 18.3 49.8 54.4 45.8 190.1z" style="fill:url(#linear-gradient-3)"></path></g><path class="cls-9" d="M388.39 124.5c23.2 0 36.5 9.8 39.9 29.5 2 47.6 2.5 75.6 1.6 84-.7 8.1-6 15-13.7 17.8-1.8.6-8.4 1-19.9 1.2v28.6c-21 28.7-46 28.7-75 0l13.6-68.1c-9-4.3-11.9-18.6-2.4-23.7 2.3-1.4 4.9-2 7.5-1.9 2.3-11.6 4.8-24.2 7.6-37.9 4.1-19.6 17.7-29.5 40.8-29.5z"></path><path class="cls-13" d="M360.59 308.3c-12.9 0-26.5-7.2-40.4-21.6-.6-.6-.6-1.7 0-2.3s1.7-.6 2.3 0c13.8 14.3 27.1 21.2 39.6 20.6 11.4-.5 22.5-7.4 33-20.5.5-.7 1.5-.8 2.3-.3.7.5.8 1.5.3 2.3l-.1.1c-11.1 13.8-23 21.1-35.4 21.7h-1.6zm-16.6-86.8c-9 0-13.7-3.5-16-6.5-3-3.8-4-8.8-2.9-13.5 1.7-6.8 7-10.7 15.7-11.6.9-.1 1.7.5 1.7 1.4.1.9-.5 1.7-1.4 1.8-7.4.8-11.6 3.7-12.9 9.1-.9 3.7-.1 7.7 2.3 10.8 2.7 3.4 7.4 5.3 13.5 5.3.9-.1 1.7.6 1.8 1.4.1.9-.6 1.7-1.4 1.8h-.4zm58.5 8.7c-7.1 0-11.6-1.2-13.6-3.8-1.2-1.5-1.5-3.4-1-5.2.2-.7.8-1.3 1.6-1.3h18.8c.9 0 1.6.7 1.6 1.6s-.7 1.6-1.6 1.6h-17.4c0 .5.2.9.5 1.3.9 1.2 3.6 2.6 11.1 2.6.9 0 1.6.7 1.6 1.6s-.7 1.6-1.6 1.6z"></path><path class="cls-14" d="M340.19 193.3s-1.8-44.6 6.7-55.9 17.8-13.4 44.9-13.4 64.3 19.1 33.1 26.4c-20.8 4.8-39.4 4.8-55.6 0-7 27.1-17.6 42.9-29.1 42.9z"></path><path class="cls-13" d="M412.09 215c-6.3 0-7.8-2.9-8.2-4.2-.5-2 .4-4 2.1-5 1.8-1 4.2-.6 5.5 1 .7.6.7 1.6.2 2.3-.6.7-1.6.7-2.3.2l-.2-.2c-.4-.5-1.1-.7-1.7-.5-.5.3-.8.9-.6 1.4.2.8 1.7 1.8 5.1 1.8 4.5 0 7.2-.7 8.2-2.1 1.4-2.1-.5-6.7-2.7-12-1.1-2.6-2.3-5.5-3.3-8.5-.3-.8 0-1.8.9-2.1.8-.3 1.8 0 2.1.9 0 .1.1.2.1.2 1 2.9 2.2 5.8 3.2 8.3 2.7 6.4 4.8 11.5 2.4 15-1.5 2.4-4.9 3.5-10.8 3.5z"></path></g></svg> 